<svg height='300px' width='300px' fill="#149501" xmlns="http://www.w3.org/2000/svg" xmlns:xlink="http://www.w3.org/1999/xlink" version="1.1" x="0px" y="0px" viewBox="0 0 512 512" enable-background="new 0 0 512 512" xml:space="preserve">
  <g>
    <path d="M256,2C115.7,2,2,115.7,2,256c0,140.3,113.7,254,254,254s254-113.7,254-254C510,115.7,396.3,2,256,2z M256,459.2   C144,459.2,52.8,368,52.8,256C52.8,144,144,52.8,256,52.8c112,0,203.2,91.2,203.2,203.2C459.2,368,368,459.2,256,459.2z"></path>
    <g>
      <path d="M201.6,357.3c-7.1-1-13.5-5-17.5-11.1l-50.8-76.2c-7.8-11.7-4.6-27.4,7-35.2c11.7-7.8,27.4-4.6,35.2,7l35.1,52.7    l130.7-108.9c10.8-9,26.8-7.5,35.8,3.2c9,10.8,7.5,26.8-3.2,35.8l-152.4,127C214.9,358.3,202.8,357.5,201.6,357.3z"></path>
    </g>
  </g>
</svg>
