<svg xmlns="http://www.w3.org/2000/svg" width="56" height="70" viewBox="0 0 56 70">
    <g fill="none" fill-rule="evenodd">
        <path fill="#9F99BA" fill-rule="nonzero" d="M41.13 7.86a6.07 6.07 0 0 1 5.998 5.783v40.915c0 3.142-2.857 5.427-5.998 5.427H5.998C2.856 59.985 0 57.7 0 54.558V13.643a6.07 6.07 0 0 1 5.998-5.784h5.427V5.431c0-.785.785-1.142 1.57-1.142h4.142A6.498 6.498 0 0 1 23.493.005c2.856 0 5.355 1.428 6.355 4.284h4.212c.786 0 1.643.357 1.643 1.142V7.86h5.427zM14.28 7.144v5.713h18.566V7.145h-4.07a1.57 1.57 0 0 1-1.429-1.285 4.07 4.07 0 0 0-3.855-3.213 4.141 4.141 0 0 0-3.928 3.213 1.571 1.571 0 0 1-1.357 1.285h-3.927zm29.99 47.413V13.643a3.214 3.214 0 0 0-3.142-2.928h-5.426v3.642a1.57 1.57 0 0 1-1.643 1.357H12.996a1.5 1.5 0 0 1-1.571-1.357v-3.642H5.998a3.213 3.213 0 0 0-3.142 2.928v40.915c0 1.571 1.571 2.57 3.142 2.57H41.13c1.57 0 3.141-.999 3.141-2.57zM38.56 34.993a1.428 1.428 0 1 1 0 2.856H22.136a1.428 1.428 0 1 1 0-2.856h16.423zm0-11.425a1.428 1.428 0 1 1 0 2.857H22.136a1.428 1.428 0 1 1 0-2.857h16.423zm0 22.85a1.428 1.428 0 1 1 0 2.856H22.136a1.428 1.428 0 1 1 0-2.856h16.423zM16.762 34.993c.43 0 .778.64.778 1.428 0 .79-.348 1.428-.778 1.428H7.818c-.43 0-.778-.639-.778-1.428 0-.788.348-1.428.778-1.428h8.944zm0-11.425c.43 0 .778.64.778 1.428 0 .79-.348 1.429-.778 1.429H7.818c-.43 0-.778-.64-.778-1.429 0-.788.348-1.428.778-1.428h8.944zm0 22.85c.43 0 .778.64.778 1.428 0 .789-.348 1.428-.778 1.428H7.818c-.43 0-.778-.639-.778-1.428 0-.789.348-1.428.778-1.428h8.944z"/>
        <circle cx="42" cy="56" r="12" fill="#EAE7F5" stroke="#9F99BA" stroke-width="3"/>
        <path fill="#9F99BA" fill-rule="nonzero" d="M41.36 58.04c0-.73.088-1.31.265-1.743.177-.432.501-.858.973-1.277.471-.42.785-.76.941-1.024.156-.263.234-.54.234-.832 0-.88-.406-1.32-1.218-1.32-.386 0-.694.118-.926.355-.232.237-.353.564-.363.98H39c.01-.994.332-1.773.965-2.335.633-.563 1.496-.844 2.59-.844 1.104 0 1.96.267 2.57.8.61.535.914 1.289.914 2.263 0 .442-.099.86-.297 1.253-.198.394-.544.83-1.039 1.309l-.633.602c-.396.38-.622.825-.68 1.336l-.03.476h-2zm-.227 2.398c0-.35.118-.637.355-.864.237-.226.54-.34.91-.34s.674.114.91.34c.238.227.356.515.356.864 0 .343-.116.627-.348.851-.231.224-.537.336-.918.336-.38 0-.686-.112-.918-.336a1.134 1.134 0 0 1-.347-.852z"/>
    </g>
</svg>
