<svg xmlns="http://www.w3.org/2000/svg" width="42" height="40" viewBox="0 0 42 40">
    <g fill="#9E98B9" fill-rule="nonzero">
        <path d="M41.545 21.922a16.454 16.454 0 0 0-4.729-9.979 16.325 16.325 0 0 0-8.031-4.41V5.469a2.769 2.769 0 0 0 2.097-2.682A2.767 2.767 0 0 0 28.118.02h-5.854A2.767 2.767 0 0 0 19.5 2.786c0 1.294.894 2.383 2.097 2.682v2.071a16.325 16.325 0 0 0-8.006 4.404c-.5.5-.96 1.023-1.38 1.567l-.062-.003H6.355a.813.813 0 0 0 0 1.626h4.749a16.298 16.298 0 0 0-1.443 3.125H.813a.813.813 0 0 0 0 1.626h8.389a16.53 16.53 0 0 0-.404 3.125H5.203a.813.813 0 0 0 0 1.626h3.621c.069 1.052.238 2.099.508 3.125H4.065a.813.813 0 0 0 0 1.626h5.786a16.328 16.328 0 0 0 3.74 5.783 16.453 16.453 0 0 0 11.6 4.81c3.173 0 6.305-.919 8.963-2.65a.813.813 0 0 0-.888-1.362c-5.817 3.788-13.609 2.969-18.526-1.948-5.769-5.77-5.769-15.156 0-20.926 5.77-5.769 15.157-5.769 20.926 0 4.91 4.91 5.734 12.695 1.958 18.51a.813.813 0 0 0 1.364.886 16.475 16.475 0 0 0 2.557-10.567zM21.125 2.786c0-.628.512-1.139 1.14-1.139h5.853a1.14 1.14 0 0 1 0 2.277h-5.854a1.14 1.14 0 0 1-1.138-1.138zm2.098 4.474V5.55h3.936v1.707a16.565 16.565 0 0 0-3.936.003z"/>
        <path d="M36.241 33.78a.817.817 0 0 0-.813.813.816.816 0 0 0 .813.814.817.817 0 0 0 .813-.814.819.819 0 0 0-.238-.574.82.82 0 0 0-.575-.239zM25.203 10.944c-6.954 0-12.612 5.658-12.612 12.612s5.658 12.612 12.612 12.612c6.955 0 12.612-5.658 12.612-12.612s-5.657-12.612-12.612-12.612zm0 23.598c-6.057 0-10.986-4.928-10.986-10.986 0-6.058 4.929-10.986 10.986-10.986 6.058 0 10.986 4.928 10.986 10.986 0 6.058-4.928 10.986-10.986 10.986z"/>
        <path d="M30.346 17.263L26.32 21.29a2.511 2.511 0 0 0-2.232 0l-1.802-1.802a.813.813 0 0 0-1.15 1.15l1.803 1.802a2.53 2.53 0 0 0 2.266 3.642 2.53 2.53 0 0 0 2.265-3.642l3.909-3.909.118-.118a.813.813 0 0 0-1.15-1.15zm-5.143 7.193a.901.901 0 0 1 0-1.8.901.901 0 0 1 0 1.8zM33.896 22.753h-.753a.813.813 0 0 0 0 1.626h.753a.813.813 0 0 0 0-1.626zM17.264 22.733h-.753a.813.813 0 0 0 0 1.626h.753a.813.813 0 0 0 0-1.626zM25.213 16.43a.813.813 0 0 0 .813-.813v-.754a.813.813 0 0 0-1.626 0v.754c0 .449.364.813.813.813zM25.193 30.682a.813.813 0 0 0-.813.813v.754a.813.813 0 0 0 1.626 0v-.754a.813.813 0 0 0-.813-.813zM.813 27.76a.82.82 0 0 0-.575.238.82.82 0 0 0-.238.574.817.817 0 0 0 .813.813.819.819 0 0 0 .575-.238.82.82 0 0 0 .238-.575.819.819 0 0 0-.238-.574.819.819 0 0 0-.575-.239z"/>
    </g>
</svg>
