<svg xmlns="http://www.w3.org/2000/svg" width="24" height="24" viewBox="0 0 24 24">
    <path fill="#524493" fill-rule="nonzero" d="M22.757 9.475c.717.12 1.238.736 1.228 1.463v2.11a1.48 1.48 0 0 1-1.238 1.462l-1.683.28c-.17.562-.401 1.108-.677 1.634l.993 1.393c.42.591.35 1.398-.16 1.91l-1.494 1.492a1.47 1.47 0 0 1-1.047.436 1.47 1.47 0 0 1-.862-.275l-1.388-.992a9.506 9.506 0 0 1-1.633.676l-.286 1.683a1.48 1.48 0 0 1-1.463 1.238h-2.114a1.48 1.48 0 0 1-1.463-1.238l-.28-1.683a9.479 9.479 0 0 1-1.584-.651l-1.408 1.002a1.47 1.47 0 0 1-1.904-.16L2.8 19.76a1.477 1.477 0 0 1-.16-1.909l.987-1.373a9.272 9.272 0 0 1-.687-1.628l-1.703-.29A1.48 1.48 0 0 1 0 13.096v-2.11a1.48 1.48 0 0 1 1.238-1.462l1.663-.28c.17-.567.39-1.113.666-1.64L2.565 6.199a1.483 1.483 0 0 1 .16-1.909l1.499-1.493c.275-.28.651-.436 1.047-.436.31 0 .611.095.862.276l1.378.992a9.272 9.272 0 0 1 1.628-.687l.29-1.703A1.48 1.48 0 0 1 10.894 0h2.11a1.48 1.48 0 0 1 1.462 1.238l.28 1.663c.587.175 1.153.41 1.694.697l1.393-.993a1.47 1.47 0 0 1 1.904.16L21.23 4.26c.516.511.581 1.318.16 1.909l-.992 1.388c.276.52.502 1.067.677 1.633l1.683.286zm-.115 3.572h.005v-2.11a.13.13 0 0 0-.11-.13l-2.104-.355a.665.665 0 0 1-.542-.496 8.02 8.02 0 0 0-.871-2.1.677.677 0 0 1 .03-.736l1.237-1.739a.136.136 0 0 0-.015-.17L18.78 3.718a.134.134 0 0 0-.095-.04.15.15 0 0 0-.075.025L16.88 4.945a.677.677 0 0 1-.736.03 8.133 8.133 0 0 0-2.15-.881.677.677 0 0 1-.5-.547l-.352-2.089a.13.13 0 0 0-.13-.11h-2.11a.13.13 0 0 0-.13.11l-.36 2.12a.686.686 0 0 1-.496.54A7.945 7.945 0 0 0 7.82 5a.686.686 0 0 1-.741-.03L5.35 3.738a.123.123 0 0 0-.075-.025.127.127 0 0 0-.095.04L3.688 5.246a.136.136 0 0 0-.015.17L4.92 7.17c.156.215.17.501.035.732a8.013 8.013 0 0 0-.856 2.104.677.677 0 0 1-.547.5l-2.089.352a.13.13 0 0 0-.11.13v2.11c0 .064.045.12.11.13l2.12.36c.26.045.47.24.54.496.191.737.492 1.443.882 2.095a.686.686 0 0 1-.03.741L3.743 18.65a.136.136 0 0 0 .015.17l1.493 1.493c.035.035.075.04.095.04a.15.15 0 0 0 .075-.025l1.754-1.247a.66.66 0 0 1 .39-.125c.116 0 .236.03.341.09.647.37 1.338.656 2.055.841.255.066.45.276.496.542l.35 2.104a.13.13 0 0 0 .13.11h2.11a.13.13 0 0 0 .13-.11l.356-2.104a.665.665 0 0 1 .496-.542 8.02 8.02 0 0 0 2.1-.871.677.677 0 0 1 .736.03l1.739 1.237c.02.015.045.025.075.025.025 0 .06-.005.095-.04l1.493-1.493a.136.136 0 0 0 .015-.17l-1.237-1.744a.677.677 0 0 1-.03-.736 8.02 8.02 0 0 0 .871-2.1.673.673 0 0 1 .542-.496l2.104-.35a.13.13 0 0 0 .11-.13zM11.995 6.814a5.18 5.18 0 0 1 5.176 5.176 5.18 5.18 0 0 1-5.176 5.176 5.18 5.18 0 0 1-5.176-5.176 5.18 5.18 0 0 1 5.176-5.176zm0 8.999a3.825 3.825 0 0 0 3.823-3.823 3.825 3.825 0 0 0-3.823-3.823 3.825 3.825 0 0 0-3.823 3.823 3.825 3.825 0 0 0 3.823 3.823z"/>
</svg>
