<svg xmlns="http://www.w3.org/2000/svg" width="1440" height="655" viewBox="0 0 1440 655">
    <path fill="#E9E7F7" fill-rule="evenodd" d="M0 655.5c27.188-129.935 75.32-194.902 144.395-194.902 103.613 0 100.84 70.292 145.377 97.983 44.537 27.691 123.92 27.691 143.412-63.902 19.492-91.594 79.206-127.805 146.36-128.87 67.153-1.065 80.654 51.031 142.43 37.276 61.775-13.754 74.898-35.146 145.376-134.195 46.986-66.032 94.79-104.374 143.413-115.024 57.581-9.394 106.695 4.806 147.341 42.601 60.97 56.693 104.21-76.11 132.677-112.704 28.467-36.595 49.528-54.31 83.246-69.943 13.128-6.087 35.125-10.527 65.99-13.32l.983 655H0z"/>
</svg>
