<svg xmlns="http://www.w3.org/2000/svg" width="38" height="34" viewBox="0 0 38 34">
    <path fill="#F27676" fill-rule="nonzero" d="M18.542 23.89a1.86 1.86 0 0 1 1.86 1.952c.046.99-.862 1.86-1.86 1.86a1.926 1.926 0 0 1-1.906-1.906c0-1.037.869-1.906 1.906-1.906zm17.64 6.754c-1.204 2.082-3.346 3.324-5.733 3.324H6.604a6.524 6.524 0 0 1-5.695-3.27 6.56 6.56 0 0 1-.023-6.625L12.84 3.376A6.51 6.51 0 0 1 18.55.067c2.393 0 4.528 1.235 5.71 3.316l11.937 20.675c1.19 2.058 1.182 4.52-.015 6.586zM33.59 29.15c.656-1.136.663-2.477.023-3.59L21.667 4.87a3.553 3.553 0 0 0-3.118-1.814c-1.31 0-2.47.67-3.117 1.806L3.478 25.552a3.607 3.607 0 0 0 .008 3.636 3.553 3.553 0 0 0 3.11 1.784h23.846a3.602 3.602 0 0 0 3.148-1.822zM18.07 10.511a1.91 1.91 0 0 1 2.202 1.075c.13.305.176.61.176.953-.046.953-.13 1.906-.176 2.859-.084 1.471-.175 2.942-.259 4.414-.046.48-.046.914-.046 1.387-.038.785-.648 1.388-1.425 1.388-.778 0-1.38-.565-1.426-1.342l-.389-6.838c-.045-.603-.083-1.212-.13-1.815 0-.998.565-1.822 1.472-2.08z"/>
</svg>
